<svg width="100%" height="100%" fill="none" xmlns="http://www.w3.org/2000/svg" viewBox="0 0 354 111"><path d="M123.248 65.969c.597 1.836 1.484 3.283 2.66 4.344 1.175 1.059 2.467 1.589 3.877 1.589 1.837 0 3.738-.823 5.704-2.472 1.508-1.265 2.951-2.756 4.334-4.463.172.414.347.824.538 1.213 1.88 3.814 4.848 5.722 8.908 5.722 2.82 0 5.342-1.013 7.563-3.037 1.282-1.176 1.923-2.754 1.923-4.731 0-.895-.16-1.66-.479-2.295-.32-.637-.737-.955-1.25-.955-.472 0-.94.236-1.41.707a10.406 10.406 0 0 1-2.531 1.836c-.92.472-1.742.707-2.468.707-1.326 0-2.371-.424-3.142-1.271-.769-.848-1.324-2.26-1.666-4.238 4.742-6.216 8.546-12.454 11.408-18.717 2.862-6.264 4.294-11.913 4.294-16.952 0-3.86-.607-6.745-1.826-8.651-1.218-1.908-2.873-2.861-4.967-2.86-3.547 0-6.624 2.153-9.229 6.463-2.608 4.308-4.583 9.56-5.93 15.75-1.346 6.192-2.02 11.948-2.02 17.269 0 2.491.149 4.779.438 6.88-1.602 2.067-2.901 3.602-3.897 4.598-1.154 1.153-2.137 1.729-2.948 1.729-.513 0-.93-.212-1.25-.636-.319-.424-.479-.987-.479-1.694 0-2.119.491-5.886 1.474-11.302.641-3.719.961-6.073.961-7.063 0-1.646-1.047-2.471-3.14-2.471-.983 0-1.923.094-2.82.282-.215-1.035-.48-1.753-.801-2.153-.322-.399-.953-.601-1.893-.601-2.947 0-5.735 1.022-8.362 3.072-2.627 2.049-4.733 4.757-6.313 8.122-.353.75-.659 1.512-.933 2.282l-.09.012c-2.094.329-3.995.493-5.704.493-.513 0-.961-.022-1.346-.069a39.696 39.696 0 0 0-3.076-.142c-.472 0-1.005.354-1.604 1.06a9.73 9.73 0 0 0-1.506 2.472c-.407.943-.588 1.721-.545 2.331.769 3.814 1.378 7.44 1.826 10.877.449 3.437.673 6.992.673 10.665 0 4.896-.641 7.346-1.922 7.346-.686 0-1.176-2.556-1.475-7.664a253.934 253.934 0 0 1-.448-14.938c0-3.482.213-7.533.641-12.148 12.006-13.041 18.01-25.097 18.01-36.162 0-3.344-.565-6.004-1.697-7.981-1.134-1.978-2.703-2.967-4.711-2.967-3.719 0-7.125 3.049-10.224 9.147-3.099 6.098-5.535 13.797-7.307 23.096a148.67 148.67 0 0 0-2.535 21.856c-1.087 1.349-2.007 2.401-2.754 3.148-1.154 1.153-2.137 1.729-2.948 1.729-.513 0-.93-.212-1.25-.636-.32-.424-.479-.987-.479-1.694 0-2.119.49-5.886 1.474-11.302.641-3.719.961-6.073.961-7.063 0-1.646-1.047-2.471-3.14-2.471-.983 0-1.924.094-2.82.282-.215-1.035-.481-1.753-.801-2.153-.322-.399-.953-.601-1.893-.601-2.947 0-5.735 1.022-8.362 3.072-2.627 2.049-4.733 4.757-6.313 8.122-1.581 3.367-2.371 6.934-2.371 10.701 0 .258.014.505.022.755-.325.315-.634.595-.923.831-1.239 1.014-2.543 1.519-3.909 1.519-1.538 0-2.895-.659-4.069-1.978-1.176-1.318-2.362-3.392-3.558-6.217-1.111-2.636-2.223-4.637-3.332-6.002-1.112-1.365-2.692-2.354-4.743-2.967 3.247-.941 6.003-2.378 8.268-4.309 2.266-1.93 3.963-4.154 5.097-6.674 1.132-2.519 1.697-5.096 1.697-7.734 0-3.014-.673-5.721-2.019-8.122s-3.409-4.284-6.186-5.649c-2.777-1.365-6.217-2.049-10.318-2.049-5.896 0-11.098 1.52-15.606 4.557-4.508 3.037-8.012 7.427-10.511 13.171C1.25 35.266 0 42.094 0 50.004c0 4.238.599 8.017 1.795 11.336 1.196 3.32 2.896 5.91 5.096 7.771 2.2 1.861 4.732 2.79 7.596 2.79 2.604 0 4.551-.764 5.832-2.295 1.281-1.529 2.135-3.731 2.563-6.604.086-.517.299-1.952.643-4.308.811-5.227 1.303-8.334 1.474-9.323 1.153.142 2.125.542 2.916 1.201.79.659 1.591 1.754 2.403 3.284.812 1.531 1.923 3.896 3.333 7.098 1.752 4.003 3.6 6.829 5.544 8.477 1.943 1.648 4.305 2.472 7.082 2.472 2.862 0 5.341-.742 7.435-2.226a21.6 21.6 0 0 0 2.032-1.648c.149.237.303.472.469.695 1.58 2.119 3.696 3.179 6.343 3.179 3.375 0 6.175-1.979 8.396-5.933.597 1.836 1.483 3.283 2.66 4.344 1.175 1.059 2.467 1.589 3.877 1.589 1.837 0 3.737-.823 5.704-2.472a28.82 28.82 0 0 0 1.251-1.124c.138 8.011.778 14.132 1.925 18.355 1.302 4.804 3.493 7.205 6.568 7.205 2.436 0 4.4-1.342 5.896-4.026 1.495-2.684 2.243-6.568 2.243-11.654 0-2.307-.183-5.238-.545-8.793-.363-3.553-.822-6.791-1.378-9.711 1.923.425 3.397.637 4.423.637.941 0 1.795-.062 2.569-.179-.001.083-.007.165-.007.249 0 3.438.79 6.215 2.371 8.334 1.58 2.119 3.696 3.179 6.343 3.179 3.375-.001 6.175-1.98 8.396-5.934Zm23.554-31.008c.918-4.896 2.009-8.91 3.27-12.042 1.26-3.131 2.403-4.696 3.429-4.696 1.196 0 1.795 1.648 1.795 4.943 0 7.676-3.311 16.553-9.935 26.628a84.122 84.122 0 0 1 1.441-14.833Zm-49.764-7.097c1.11-4.732 2.231-8.534 3.364-11.407 1.132-2.871 2.083-4.308 2.852-4.308 1.068 0 1.604 1.437 1.604 4.309-.045 4.051-.983 8.393-2.82 13.031-1.838 4.638-4.466 9.1-7.884 13.384.811-5.273 1.772-10.277 2.884-15.009ZM26.217 41.953l1.923-11.725a8.68 8.68 0 0 0 .064-1.201c0-2.401-1.217-3.602-3.653-3.602-3.034 0-4.829 1.53-5.384 4.59-.599 3.346-1.24 7.324-1.923 11.938H15.64c-.854 0-1.612.33-2.274.989-.663.659-.993 1.554-.993 2.684 0 .942.267 1.79.801 2.543.534.755 1.527 1.13 2.98 1.13l-1.73 10.596c-.214 1.365-.503 2.354-.865 2.966-.362.612-.822.918-1.378.918-.727 0-1.495-.541-2.308-1.625-.813-1.082-1.496-2.707-2.051-4.873-.557-2.166-.833-4.756-.833-7.771 0-6.449.875-11.924 2.628-16.421 1.751-4.495 4.198-7.886 7.339-10.171 3.139-2.283 6.803-3.425 10.991-3.425 3.546 0 6.237.847 8.076 2.542 1.836 1.695 2.756 4.025 2.756 6.992 0 2.449-.567 4.639-1.699 6.568-1.132 1.933-2.65 3.438-4.55 4.521-1.902 1.085-4.004 1.697-6.313 1.837Zm43.197 16.104c-.384 2.025-1.004 3.65-1.858 4.875-.854 1.225-1.753 1.836-2.692 1.836-.94 0-1.678-.354-2.211-1.06-.535-.707-.802-1.789-.802-3.249 0-2.637.449-5.132 1.347-7.486.896-2.354 2.103-4.25 3.621-5.687 1.516-1.437 3.173-2.178 4.967-2.226l-2.372 12.997Zm47.748 6.711c-.94 0-1.677-.354-2.211-1.06-.535-.707-.801-1.789-.801-3.249 0-2.637.448-5.132 1.346-7.486.896-2.354 2.103-4.25 3.621-5.687 1.516-1.437 3.173-2.178 4.967-2.226l-2.371 12.996c-.384 2.025-1.004 3.65-1.857 4.875-.858 1.225-1.755 1.837-2.694 1.837Z" fill="#101010"></path><path d="M170.165 5.014c0-1.364-.812-2.541-2.436-3.53-1.624-.989-4.188-1.484-7.69-1.483-4.316 0-8.824 1.272-13.523 3.814-1.496.801-2.563 1.589-3.205 2.365-.641.777-.961 1.685-.961 2.72 0 .801.245 1.495.736 2.083.491.59 1.188.883 2.083.883.642 0 1.25-.117 1.827-.354.577-.233 1.42-.658 2.531-1.271 1.752-.942 3.354-1.683 4.808-2.226 1.452-.541 3.182-.813 5.191-.813 1.623 0 3.289.237 4.999.707.981.236 1.729.354 2.242.354 1.026 0 1.849-.283 2.469-.849.619-.564.929-1.363.929-2.4ZM246.116 33.973c1.837 0 3.311-.554 4.422-1.66 1.111-1.106 1.667-2.602 1.667-4.485 0-1.554-.493-2.754-1.475-3.603-.984-.847-2.266-1.271-3.847-1.271-1.752 0-3.215.554-4.39 1.66-1.176 1.106-1.763 2.483-1.763 4.132 0 1.649.448 2.932 1.346 3.85.897.918 2.244 1.377 4.04 1.377ZM316.165 11.865c.384 0 .81-.059 1.281-.176a8.847 8.847 0 0 0 1.603-.602c.599-.281 1.004-.47 1.218-.564a34.438 34.438 0 0 1 5.704-2.26c1.924-.565 4.294-.849 7.114-.849 1.025 0 2.435.166 4.23.495.981.236 1.771.354 2.37.354 1.026 0 1.849-.283 2.469-.849.618-.565.929-1.364.929-2.401 0-1.364-.812-2.541-2.436-3.53-1.624-.989-4.188-1.484-7.69-1.483-2.693 0-5.416.354-8.172 1.061-2.755.705-5.182 1.623-7.274 2.754-1.496.801-2.563 1.589-3.205 2.365-.641.777-.961 1.685-.961 2.72 0 .801.245 1.495.737 2.083.491.589 1.186.882 2.083.882Z" fill="#101010"></path><path d="M352.376 46.12c-.896-2.26-2.243-4.084-4.037-5.474-1.795-1.389-3.953-2.083-6.474-2.083-2.607 0-4.957.788-7.05 2.366-2.096 1.578-3.75 3.767-4.969 6.567-1.218 2.802-1.825 5.993-1.825 9.571 0 .933.079 1.835.195 2.725-.995 1.148-1.875 2.048-2.632 2.68-1.324 1.106-2.863 1.66-4.614 1.66-1.11 0-2.008-.424-2.691-1.271-.685-.848-1.176-2.26-1.475-4.238 4.743-6.261 8.545-12.512 11.408-18.752 2.862-6.238 4.294-11.877 4.294-16.916 0-3.859-.607-6.745-1.826-8.652-1.218-1.906-2.874-2.86-4.967-2.86-3.547 0-6.624 2.153-9.229 6.463-2.608 4.308-4.583 9.559-5.93 15.75-1.346 6.192-2.019 11.948-2.019 17.269 0 2.516.15 4.825.439 6.948-1.75 2.144-3.681 3.785-5.792 4.917-2.458 1.319-4.881 1.979-7.273 1.979-2.179 0-3.825-.424-4.937-1.271-1.11-.848-1.666-1.93-1.666-3.249 0-2.071 1.283-4.155 3.847-6.251 2.563-2.094 5.789-4.061 9.678-5.896 1.367-.658 2.371-1.412 3.013-2.261.642-.847.961-2.024.961-3.53 0-1.365-.225-2.377-.673-3.037-.448-.659-1.015-.989-1.698-.989-.427 0-.95.094-1.569.282-.62.188-1.037.307-1.25.353-1.197.377-2.009.565-2.437.565-1.238 0-2.767-.071-4.582-.213a450.822 450.822 0 0 0-3.75-.282c-3.291-.328-5.918-.494-7.883-.494-.855 0-1.529.437-2.02 1.308-.491.87-.736 1.87-.736 3 0 1.084.245 2.014.736 2.791.49.776 1.207 1.142 2.146 1.094l10.511-.282c-4.229 2.214-7.478 4.521-9.741 6.922-1.632 1.73-2.666 3.648-3.122 5.746-2.087 2.523-3.954 4.149-5.595 4.85.085-.848.128-1.507.128-1.978 0-1.648-.353-3.167-1.058-4.557-.705-1.388-1.742-3.071-3.107-5.05-.94-1.271-1.636-2.329-2.083-3.178-.449-.849-.675-1.624-.675-2.331 0-1.176.385-2.613 1.154-4.309.298-.61.533-1.224.705-1.836.17-.61.256-1.059.256-1.342 0-.518-.234-.894-.705-1.13-.471-.235-1.304-.353-2.499-.353-2.563 0-4.251 1.035-5.063 3.107a195.462 195.462 0 0 1-2.884 7.098c-.983 2.285-1.838 4.109-2.564 5.475-1.16 2.011-2.875 4.563-5.121 7.637-.396.45-.762.852-1.094 1.189-1.154 1.178-2.115 1.766-2.884 1.766-.813 0-1.389-.375-1.73-1.13-.343-.752-.513-1.836-.513-3.249 0-1.836.513-5.343 1.538-10.523.812-4.284 1.218-7.016 1.218-8.193 0-1.6-1.09-2.4-3.269-2.4-1.41 0-2.436.282-3.076.848-.643.564-1.154 1.601-1.539 3.107-.77 2.871-1.4 5.967-1.892 9.287-.408 2.766-.637 5.089-.705 7.021-1.141 1.355-2.137 2.387-2.981 3.076-1.239 1.015-2.543 1.52-3.909 1.52-1.539 0-2.885-.646-4.038-1.941-1.154-1.295-2.394-3.496-3.718-6.604-.94-2.212-1.773-3.942-2.499-5.19-.728-1.248-1.613-2.295-2.66-3.144-1.047-.847-2.382-1.483-4.006-1.907 4.7-1.506 9.037-4.543 13.011-9.111 3.975-4.566 7.028-10.734 9.165-18.504.171-.754.257-1.295.257-1.625 0-1.082-.332-1.918-.992-2.508-.663-.588-1.594-.883-2.788-.883-1.41 0-2.575.354-3.493 1.061-.92.705-1.57 1.719-1.955 3.037-2.094 7.156-4.711 12.818-7.853 16.985-3.14 4.168-7.21 6.534-12.209 7.099l2.499-19c2.009 0 3.014-1.295 3.014-3.885 0-1.93-1.048-3.249-3.142-3.955-1.923-.658-3.685-1.105-5.287-1.342-1.602-.234-3.364-.354-5.288-.354-4.4 0-8.098.742-11.088 2.226-2.99 1.484-5.223 3.45-6.696 5.897-1.476 2.449-2.211 5.156-2.211 8.123 0 2.873.641 5.558 1.922 8.053.642 1.318 1.645 1.978 3.013 1.978 1.067 0 2.04-.389 2.916-1.166.876-.776 1.314-1.682 1.314-2.719 0-.47-.086-.894-.258-1.271a27.352 27.352 0 0 1-.929-2.438c-.236-.729-.353-1.684-.353-2.859 0-2.59.938-4.58 2.818-5.969 1.88-1.388 4.636-2.083 8.27-2.083.982 0 2.028.07 3.14.211l-1.986 15.892a408.43 408.43 0 0 0-.641 4.804h-2.115c-.854 0-1.569.366-2.146 1.095-.576.73-.865 1.707-.865 2.932 0 1.084.277 1.931.833 2.543.556.611 1.325.918 2.308.918h1.025l-.897 6.709c-.513 3.58-1.378 6.229-2.596 7.947-1.218 1.718-2.682 2.577-4.39 2.577-1.496 0-2.746-.542-3.75-1.625-1.004-1.082-2.169-2.989-3.493-5.721-.342-.753-.704-1.282-1.089-1.589-.385-.307-.855-.459-1.41-.459-.941 0-1.71.519-2.308 1.554-.599 1.036-.897 2.259-.897 3.672 0 .989.149 1.907.449 2.755.896 2.449 2.488 4.463 4.773 6.039 2.286 1.578 4.904 2.366 7.853 2.366 4.528 0 8.086-1.483 10.671-4.45 2.585-2.967 4.327-7.816 5.224-14.55l.705-5.228c1.239.143 2.265.53 3.076 1.166.813.637 1.635 1.72 2.468 3.25s1.892 3.849 3.173 6.957c1.752 4.332 3.632 7.521 5.641 9.569 2.008 2.048 4.593 3.072 7.756 3.072 2.862 0 5.34-.742 7.435-2.226 1.084-.768 2.161-1.705 3.233-2.808.239.64.518 1.235.837 1.784 1.26 2.166 3.279 3.249 6.055 3.248 3.673 0 7.627-2.848 11.856-8.547.216-.275.398-.586.558-.921.228-.307.473-.601.694-.913 1.302-1.836 2.617-4.143 3.941-6.922a43.703 43.703 0 0 1 1.923 2.648 17.836 17.836 0 0 1 1.698 3.143 9.892 9.892 0 0 1 .736 3.461 49.39 49.39 0 0 1-1.698-.246 12.902 12.902 0 0 0-1.954-.178c-1.581 0-2.777.448-3.59 1.342-.813.896-1.218 1.955-1.218 3.179 0 1.413.587 2.685 1.763 3.813 1.176 1.128 2.873 1.695 5.092 1.696 2.35 0 4.38-.801 6.089-2.401 2.861-.095 5.266-.672 7.211-1.73 1.047-.57 2.123-1.421 3.226-2.531.084.136.147.278.237.411 1.132 1.672 2.766 2.991 4.903 3.955 2.136.965 4.656 1.448 7.563 1.448 3.717 0 7.061-.825 10.03-2.473a21.832 21.832 0 0 0 6.142-5.067c.149.365.297.731.46 1.077 1.815 3.839 4.604 5.757 8.364 5.757 2.734 0 5.18-.8 7.338-2.401 1.198-.889 2.343-1.931 3.442-3.097.797 1.33 1.774 2.48 2.968 3.414 1.771 1.39 3.919 2.084 6.442 2.082 2.563 0 4.902-.788 7.018-2.366 2.115-1.576 3.792-3.766 5.031-6.568 1.239-2.8 1.857-5.99 1.857-9.57.002-2.59-.446-5.016-1.344-7.277Zm-34.578-11.159c.919-4.896 2.008-8.91 3.27-12.042 1.26-3.131 2.402-4.696 3.43-4.696 1.195 0 1.794 1.648 1.794 4.943 0 7.676-3.312 16.553-9.934 26.628a84.12 84.12 0 0 1 1.44-14.833Zm26.406 26.698c-1.004 1.743-2.233 2.614-3.684 2.614-1.282 0-2.352-.637-3.205-1.907-.855-1.271-1.281-3.249-1.281-5.933 0-3.392.501-5.944 1.506-7.664 1.002-1.719 2.275-2.578 3.813-2.578 1.194 0 2.221.66 3.075 1.978.854 1.319 1.282 3.273 1.282 5.862.001 3.344-.502 5.886-1.506 7.628ZM117.75 90.055h5.365l.001 15.285h1.613V90.055h5.363v-1.537H117.75v1.537ZM133.511 95.174v-2.475h-1.481v12.641h1.549V98.9c0-2.98 1.461-4.662 3.859-4.662.107 0 .238.024.369.024v-1.658c-2.114 0-3.575.888-4.296 2.57ZM144.936 92.602c-3.228 0-5.604 2.668-5.604 6.418s2.442 6.44 6.018 6.44c1.812 0 3.403-.721 4.428-2.067l-.872-1.104c-.873 1.104-2.115 1.658-3.512 1.658-2.508 0-4.339-1.754-4.514-4.397h9.595c0-.192.022-.385.022-.529-.001-3.798-2.334-6.419-5.561-6.419Zm-4.057 5.674c.197-2.477 1.831-4.206 4.056-4.206 2.246 0 3.882 1.729 4.078 4.206h-8.134ZM159.496 92.604c-1.984 0-3.532.889-4.361 2.427V92.7h-1.481v12.641h1.548v-6.633c0-2.884 1.549-4.566 4.013-4.566 2.179 0 3.445 1.371 3.445 4.039v7.16h1.548v-7.33c-.001-3.63-1.92-5.407-4.712-5.407ZM172.903 92.602c-3.228 0-5.604 2.668-5.604 6.418s2.443 6.44 6.02 6.44c1.81 0 3.401-.721 4.426-2.067l-.872-1.104c-.872 1.104-2.115 1.658-3.511 1.658-2.507 0-4.339-1.754-4.515-4.397h9.596c0-.192.021-.385.021-.529-.001-3.798-2.334-6.419-5.561-6.419Zm-4.057 5.674c.196-2.477 1.832-4.206 4.057-4.206 2.246 0 3.882 1.729 4.078 4.206h-8.135ZM183.104 95.174v-2.475h-1.483v12.641h1.549V98.9c0-2.98 1.461-4.662 3.859-4.662.108 0 .239.024.37.024v-1.658c-2.114 0-3.575.888-4.295 2.57ZM202.114 88.518h-5.713v16.822h1.613v-5.311h4.1c3.882 0 6.235-2.163 6.235-5.744 0-3.605-2.353-5.767-6.235-5.767Zm-.043 9.949h-4.057v-8.41h4.057c3.053 0 4.666 1.537 4.666 4.229 0 2.644-1.614 4.181-4.666 4.181ZM215.889 92.602c-3.227 0-5.604 2.668-5.604 6.418s2.443 6.44 6.019 6.44c1.811 0 3.402-.721 4.427-2.067l-.872-1.104c-.872 1.104-2.115 1.658-3.512 1.658-2.507 0-4.339-1.754-4.514-4.397h9.595c0-.192.022-.385.022-.529.001-3.798-2.332-6.419-5.561-6.419Zm-4.056 5.674c.197-2.477 1.832-4.206 4.056-4.206 2.246 0 3.883 1.729 4.078 4.206h-8.134ZM226.09 95.174v-2.475h-1.482v12.641h1.549V98.9c0-2.98 1.461-4.662 3.858-4.662.108 0 .239.024.37.024v-1.658c-2.113 0-3.574.888-4.295 2.57ZM233.631 96.159c0-1.201.916-2.091 2.987-2.091 1.178 0 2.377.313 3.38 1.082l.676-1.37c-.959-.722-2.574-1.179-4.056-1.179-2.922 0-4.535 1.539-4.535 3.605 0 4.999 7.437 2.404 7.437 5.696 0 1.25-.895 2.067-3.075 2.067-1.613 0-3.161-.625-4.077-1.418l-.697 1.346c.938.889 2.77 1.562 4.666 1.562 2.987 0 4.731-1.418 4.731-3.604 0-4.855-7.437-2.283-7.437-5.696ZM248.61 92.602c-3.359 0-5.845 2.668-5.845 6.418s2.486 6.44 5.845 6.44c3.357 0 5.821-2.69 5.821-6.44 0-3.75-2.463-6.418-5.821-6.418Zm0 11.345c-2.442 0-4.273-1.972-4.273-4.927 0-2.955 1.831-4.926 4.273-4.926 2.441 0 4.252 1.97 4.252 4.926 0 2.955-1.811 4.927-4.252 4.927ZM263.431 92.604c-1.982 0-3.531.889-4.359 2.427V92.7h-1.483v12.641h1.549v-6.633c0-2.884 1.549-4.566 4.013-4.566 2.18 0 3.444 1.371 3.444 4.039v7.16h1.548v-7.33c-.001-3.63-1.92-5.407-4.712-5.407ZM276.361 92.604c-1.811 0-3.511.625-4.666 1.707l.696 1.272c.938-.913 2.334-1.489 3.816-1.489 2.137 0 3.248 1.176 3.248 3.34v.769h-3.641c-3.293 0-4.428 1.634-4.428 3.581 0 2.188 1.593 3.677 4.188 3.677 1.896 0 3.249-.793 3.946-2.091v1.971h1.482v-7.835c.001-3.268-1.677-4.902-4.641-4.902Zm3.094 8.939c-.611 1.658-1.897 2.572-3.641 2.572-1.832 0-2.9-.913-2.9-2.379 0-1.298.719-2.26 2.943-2.26h3.598v2.067ZM286.756 87.508h-1.549v17.832h1.549V87.508ZM296.913 92.604c-1.983 0-3.532.889-4.36 2.427V92.7h-1.482v12.641h1.549v-6.633c0-2.884 1.548-4.566 4.012-4.566 2.18 0 3.445 1.371 3.445 4.039v7.16h1.548v-7.33c-.001-3.63-1.919-5.407-4.712-5.407ZM309.407 103.444l-4.317-10.743h-1.614l5.124 12.617-.501 1.226c-.653 1.587-1.352 2.115-2.377 2.115-.828 0-1.526-.336-2.093-.961l-.72 1.273c.697.769 1.723 1.152 2.791 1.152 1.634 0 2.855-.793 3.814-3.27l5.735-14.153h-1.526l-4.316 10.744ZM340.505 93.961l.955-4.543a4.833 4.833 0 0 0-4.728-5.831h-7.824a4.834 4.834 0 0 0-4.73 5.829l.956 4.543c-4.054 4.245-3.898 10.975.348 15.028.418.399.868.765 1.35 1.093v.003a.44.44 0 0 0 .249.074h11.479a.434.434 0 0 0 .249-.074c4.851-3.31 6.099-9.923 2.79-14.772a10.74 10.74 0 0 0-1.094-1.35Zm-15.463-4.726a3.936 3.936 0 0 1 .798-3.301 3.938 3.938 0 0 1 3.066-1.461h7.824a3.946 3.946 0 0 1 3.862 4.762l-.116.553h-1.969l.159-.964a2.211 2.211 0 0 0-2.182-2.578h-7.332a2.213 2.213 0 0 0-2.187 2.578l.162.964h-1.971l-.114-.553Zm12.771-.777c0 .073-.005.146-.018.218l-.497 2.984a10.806 10.806 0 0 0-8.958 0l-.498-2.98a1.328 1.328 0 0 1 1.312-1.551h7.332a1.33 1.33 0 0 1 1.327 1.329Zm1.894 19.736a9.777 9.777 0 0 1-1.287 1.08h-11.204a9.742 9.742 0 0 1-1.291-14.86.441.441 0 0 0 .123-.402l-.701-3.337h1.931l.288 1.727a.441.441 0 0 0 .646.316 9.753 9.753 0 0 1 9.216 0 .445.445 0 0 0 .649-.318l.287-1.728h1.931l-.701 3.336a.446.446 0 0 0 .119.404c3.8 3.807 3.8 9.975-.006 13.782Z" fill="#101010"></path></svg>